HIERARCHY
ROOT Hips
{
  OFFSET 263.056 91.6644 -274.608
  CHANNELS 6 Xposition Yposition Zposition Zrotation Xrotation Yrotation
  JOINT LeftUpLeg
  {
    OFFSET 8.64259 1.95398 -2.38835
    CHANNELS 3 Zrotation Xrotation Yrotation
    JOINT LeftLeg
    {
      OFFSET 43.7702 0 0
      CHANNELS 3 Zrotation Xrotation Yrotation
      JOINT LeftFoot
      {
        OFFSET 40.6238 0 0
        CHANNELS 3 Zrotation Xrotation Yrotation
        JOINT LeftToeBase
        {
          OFFSET 12.7242 0 0
          CHANNELS 3 Zrotation Xrotation Yrotation
          End Site
          {
            OFFSET 0 0 0
          }
        }
      }
    }
  }
  JOINT RightUpLeg
  {
    OFFSET -8.2249 1.95398 -2.59336
    CHANNELS 3 Zrotation Xrotation Yrotation
    JOINT RightLeg
    {
      OFFSET 43.5653 0 0
      CHANNELS 3 Zrotation Xrotation Yrotation
      JOINT RightFoot
      {
        OFFSET 40.6238 0 0
        CHANNELS 3 Zrotation Xrotation Yrotation
        JOINT RightToeBase
        {
          OFFSET 12.7242 0 0
          CHANNELS 3 Zrotation Xrotation Yrotation
          End Site
          {
            OFFSET 0 0 0
          }
        }
      }
    }
  }
  JOINT Spine
  {
    OFFSET 0.165834 0.87714 6.61349
    CHANNELS 3 Zrotation Xrotation Yrotation
    JOINT Spine1
    {
      OFFSET 7.38963 1.71661e-005 0
      CHANNELS 3 Zrotation Xrotation Yrotation
      JOINT Spine2
      {
        OFFSET 11.9445 1.14441e-005 0
        CHANNELS 3 Zrotation Xrotation Yrotation
        JOINT Spine3
        {
          OFFSET 14.7254 4.19617e-005 0
          CHANNELS 3 Zrotation Xrotation Yrotation
          JOINT Spine4
          {
            OFFSET 10.9679 0 0
            CHANNELS 3 Zrotation Xrotation Yrotation
            JOINT RightShoulder
            {
              OFFSET 2.46616 -1.6653 3.69651
              CHANNELS 3 Zrotation Xrotation Yrotation
              JOINT RightArm
              {
                OFFSET 13.0012 0 0
                CHANNELS 3 Zrotation Xrotation Yrotation
                JOINT RightForeArm
                {
                  OFFSET 28.7848 1.52588e-005 0
                  CHANNELS 3 Zrotation Xrotation Yrotation
                  JOINT RightHand
                  {
                    OFFSET 26.5688 1.52588e-005 0
                    CHANNELS 3 Zrotation Xrotation Yrotation
                    End Site
                    {
                      OFFSET 0 0 0
                    }
                  }
                }
              }
            }
            JOINT LeftShoulder
            {
              OFFSET 2.38034 -1.29275 -3.7523
              CHANNELS 3 Zrotation Xrotation Yrotation
              JOINT LeftArm
              {
                OFFSET 16.3182 6.10352e-005 0
                CHANNELS 3 Zrotation Xrotation Yrotation
                JOINT LeftForeArm
                {
                  OFFSET 27.0901 0 0
                  CHANNELS 3 Zrotation Xrotation Yrotation
                  JOINT LeftHand
                  {
                    OFFSET 24.5451 1.52588e-005 0
                    CHANNELS 3 Zrotation Xrotation Yrotation
                    End Site
                    {
                      OFFSET 0 0 0
                    }
                  }
                }
              }
            }
            JOINT Neck
            {
              OFFSET 5.0226 -0.0266342 0
              CHANNELS 3 Zrotation Xrotation Yrotation
              JOINT Head
              {
                OFFSET 6.69364 2.86102e-005 0
                CHANNELS 3 Zrotation Xrotation Yrotation
                End Site
                {
                  OFFSET 0 0 0
                }
              }
            }
          }
        }
      }
    }
  }
}
MOTION
Frames:	18
Frame Time:	0.0416667
-47.9339 97.2768 42.1634 -103.823 -86.1329 -104.082 -171.855 2.34755 91.5253 -7.08858 6.31401 -0.193904 59.4038 2.44929 8.19804 33.1471 5.2821 -16.8485 176.914 3.20158 88.3643 -11.0601 5.55273 -0.988969 63.8789 -1.34435 -0.710113 29.9571 -0.451347 9.93352 -0.117124 7.03103 -90.0214 12.8118 -0.24279 -0.013766 1.14091 -0.243159 -0.00307398 -21.3944 -0.227424 -0.086097 -1.38176 -0.227428 -0.0861049 80.242 -51.3565 -115.005 25.0159 -12.7252 4.40528 -2.7878 -13.6992 -37.5317 -7.61201 -0.763718 6.09521 -103.173 -43.7789 56.7354 -28.2393 12.1802 1.63214 2.14212 10.5407 -29.0489 12.9922 1.23792 5.45447 10.0347 1.20579 3.47788 -5.20375 0.404605 -0.738673 
-47.9239 97.2554 42.1987 -102.505 -86.1762 -102.726 -171.828 2.45063 91.5649 -7.14798 6.40493 -0.230868 59.5953 2.68731 8.40458 32.743 4.95576 -17.1979 176.938 3.25106 88.393 -11.041 5.35107 -0.988541 64.0126 -1.39423 -0.74107 29.9002 -0.439545 9.5529 -0.1189 7.02385 -90.03 12.8262 -0.250417 -0.0300532 1.15527 -0.251494 -0.019007 -21.3801 -0.229814 -0.103923 -1.36741 -0.22981 -0.103926 80.3948 -51.1637 -114.856 25.211 -12.6852 4.34505 -2.97294 -13.6796 -37.5131 -7.66417 -0.771119 6.1481 -103.186 -43.8023 56.7281 -28.252 12.1615 1.56993 2.16094 10.6081 -29.0127 12.9167 1.23876 5.50956 10.1181 1.2697 3.36012 -5.27971 0.489289 -0.597292 
-47.9397 97.2672 42.1827 -102.768 -86.151 -102.998 -171.857 2.46335 91.5567 -7.20187 6.09752 -0.173036 59.6257 2.49774 7.88458 33.1399 5.27157 -16.6513 176.952 3.12877 88.4097 -10.8606 5.30148 -1.01092 64.0704 -1.45417 -0.777177 29.7036 -0.450767 9.24054 -0.113604 7.02505 -90.0228 12.8238 -0.236497 -0.0173217 1.15284 -0.237031 -0.00690683 -21.3825 -0.220358 -0.0875939 -1.36983 -0.220355 -0.0876022 80.3899 -51.302 -114.81 25.0966 -12.7384 4.28157 -3.05979 -13.7771 -37.5011 -7.34178 -0.739619 6.06773 -103.269 -43.7947 56.5981 -28.1619 12.1328 1.62023 2.10576 10.4638 -28.9485 12.8239 1.2308 5.51126 10.0781 1.22333 3.27474 -5.24513 0.461342 -0.420665 
-47.9236 97.2766 42.1708 -103.601 -86.1802 -103.837 -171.885 2.4137 91.5248 -7.19545 6.21732 -0.147662 59.5723 2.51255 7.96963 32.8897 5.06285 -16.6303 176.909 3.12107 88.3791 -10.9086 5.38838 -0.977623 63.9291 -1.40251 -0.746125 29.8669 -0.448372 9.62864 -0.125637 7.02471 -90.0284 12.8192 -0.263009 -0.0253257 1.14827 -0.263868 -0.0137366 -21.3871 -0.243239 -0.103205 -1.37443 -0.243235 -0.103201 80.2392 -51.2209 -115.062 25.1159 -12.628 4.42014 -2.81041 -13.7136 -37.4187 -7.77672 -0.771413 5.98516 -103.321 -43.9461 56.5897 -28.0989 12.1234 1.65679 2.11406 10.4504 -29.0005 12.9616 1.22778 5.39953 10.1165 1.33378 3.59904 -5.1497 0.499038 -0.720956 
-47.9319 97.2646 42.1951 -102.972 -86.2092 -103.183 -171.903 2.48846 91.5403 -7.22129 6.48021 -0.150264 59.3283 2.40484 8.36876 33.6512 5.70171 -17.0308 176.879 3.18801 88.3772 -10.9839 5.40677 -0.925683 64.1272 -1.47179 -0.787944 29.7554 -0.482121 9.94674 -0.124027 7.02146 -90.03 12.8271 -0.260599 -0.0288441 1.15614 -0.261621 -0.0173558 -21.3792 -0.239889 -0.105838 -1.36655 -0.23989 -0.105843 80.3146 -51.1819 -114.967 25.1949 -12.6221 4.36216 -2.81533 -13.6259 -37.4174 -7.65693 -0.748525 5.76272 -103.278 -43.8677 56.6186 -28.1333 12.1605 1.61996 2.11428 10.4948 -29.0039 12.9638 1.22566 5.38254 10.1757 1.28476 3.52326 -5.25159 0.465986 -0.660366 
-47.9469 97.265 42.179 -103.222 -86.1515 -103.508 -171.917 2.36418 91.4631 -7.05938 6.45538 -0.159888 59.4807 2.68798 8.54952 32.696 4.90064 -16.6125 176.895 3.2058 88.3335 -11.0037 5.28121 -0.978572 63.8614 -1.36351 -0.723628 30.078 -0.415129 9.57944 -0.112484 7.0173 -90.01 12.817 -0.228077 0.00726132 1.14604 -0.227546 0.0172883 -21.3892 -0.219724 -0.0616222 -1.37656 -0.219721 -0.0616269 80.3121 -51.2402 -114.948 25.2849 -12.6178 4.39557 -2.77932 -13.6696 -37.4582 -7.93504 -0.77153 5.76221 -103.194 -43.7729 56.7014 -28.1358 12.1983 1.61335 2.10416 10.4991 -29.0134 12.9063 1.20756 5.28535 10.1245 1.21085 3.33063 -5.19752 0.437366 -0.57337 
-47.9854 97.2764 42.1806 -104.267 -86.134 -104.614 -171.833 2.03188 91.4953 -6.50415 6.51288 -0.26111 59.0509 2.56448 8.75035 33.7622 5.8066 -18.2273 176.895 3.20123 88.3044 -11.1743 5.32284 -1.02507 64.198 -1.44581 -0.770988 29.753 -0.461704 9.568 -0.122504 7.01405 -90.0015 12.8191 -0.243932 0.0261585 1.14818 -0.24254 0.0368603 -21.3872 -0.24052 -0.0483657 -1.37451 -0.24052 -0.0483707 80.0999 -51.327 -115.224 25.1314 -12.5796 4.44668 -2.6763 -13.65 -37.3975 -7.75333 -0.751506 5.67741 -103.383 -43.9182 56.484 -27.9603 12.1263 1.86095 2.20588 10.4717 -29.2247 12.7762 1.21296 5.4093 10.0812 1.34101 3.36326 -5.13972 0.556374 -0.454014 
-47.963 97.2642 42.1768 -103.947 -86.1465 -104.233 -171.879 2.38614 91.5093 -7.19809 6.35917 -0.180451 59.5084 2.53325 8.23146 32.8926 5.06378 -16.5729 176.913 3.14634 88.3642 -11.0221 5.43201 -0.998013 64.1714 -1.45348 -0.775868 29.5401 -0.50858 9.84611 -0.122294 7.01371 -90.0097 12.8347 -0.247429 0.0103182 1.16373 -0.246743 0.0211893 -21.3716 -0.239094 -0.0645206 -1.35895 -0.239097 -0.0645322 80.2584 -51.1568 -115.058 25.3965 -12.5578 4.46075 -2.79681 -13.5749 -37.4718 -7.5246 -0.729203 5.61346 -103.291 -43.9059 56.6174 -28.056 12.1073 1.75247 2.21396 10.6102 -29.0795 12.9058 1.20506 5.267 10.0051 1.26248 3.47137 -5.16533 0.459274 -0.55995 
-47.9553 97.2597 42.1888 -103.793 -86.2256 -104.069 -171.919 2.36493 91.4961 -7.07246 6.43573 -0.146773 59.3118 2.49716 8.42794 33.4826 5.56823 -17.4387 176.953 3.1954 88.3796 -11.0837 5.58182 -1.03986 64.1088 -1.40568 -0.746418 29.6622 -0.503762 10.0856 -0.122927 7.02051 -90.015 12.8334 -0.251287 0.000119554 1.16251 -0.251034 0.0111702 -21.3728 -0.239705 -0.0754038 -1.36019 -0.239711 -0.0754185 80.3698 -51.1085 -114.914 25.3434 -12.5915 4.3517 -2.81533 -13.8155 -37.4392 -7.56543 -0.736708 5.67563 -103.367 -43.8863 56.4929 -27.9876 12.223 1.71218 2.09578 10.4663 -29.0617 12.9661 1.21193 5.27942 10.0706 1.31405 3.50283 -5.21206 0.498546 -0.422516 
-47.9648 97.2721 42.1639 -104.689 -86.2322 -105.003 -171.898 2.29866 91.4759 -7.0748 6.17579 -0.147099 59.6066 2.54621 7.72439 32.6928 4.87963 -15.9098 176.831 3.13781 88.2929 -11.0706 5.19879 -0.94246 63.9713 -1.41012 -0.751254 30.1597 -0.382499 9.17579 -0.131585 7.02235 -90.0073 12.8292 -0.26476 0.017083 1.15833 -0.263754 0.028716 -21.377 -0.257658 -0.0632815 -1.36439 -0.257653 -0.0632839 80.3028 -51.1718 -114.987 25.2313 -12.6674 4.28098 -2.86302 -14.0525 -37.4088 -7.44256 -0.735367 5.82233 -103.291 -43.865 56.5978 -28.0054 12.2506 1.73588 2.08726 10.4594 -29.1034 12.8487 1.22001 5.41485 10.0174 1.33112 3.42966 -5.12719 0.533631 -0.456337 
-48.0077 97.2665 42.1759 -105.241 -86.1016 -105.599 -171.837 2.08802 91.5091 -6.80969 6.40736 -0.239798 59.2957 2.56294 8.36784 33.5199 5.59928 -17.4405 176.912 3.09416 88.3212 -11.1262 5.28345 -1.05886 64.2438 -1.46049 -0.779056 29.843 -0.444464 9.49279 -0.10621 7.03176 -90.009 12.8104 -0.215155 0.00767054 1.13946 -0.214609 0.0171275 -21.3958 -0.207522 -0.0573584 -1.38318 -0.207516 -0.0573492 80.4102 -51.1394 -114.843 25.2491 -12.6696 4.23742 -2.91191 -14.1904 -37.2704 -7.2391 -0.706842 5.58555 -103.484 -43.8412 56.2951 -28.0302 12.2112 1.80412 2.16781 10.5512 -29.1925 12.9373 1.23976 5.50359 10.0805 1.30413 3.50804 -5.10898 0.488252 -0.509584 
-47.9843 97.2812 42.18 -104.578 -86.1596 -104.961 -171.91 2.1351 91.4272 -6.79 6.36371 -0.180696 59.3414 2.54153 8.17569 32.8593 5.04 -16.726 176.8 3.18928 88.2249 -11.1742 5.17462 -0.946288 64.0556 -1.42297 -0.75922 29.8528 -0.452687 9.66732 -0.118672 7.02009 -90.0024 12.8338 -0.236764 0.0235717 1.16283 -0.235501 0.0339606 -21.3725 -0.232907 -0.0486818 -1.35984 -0.232902 -0.0486748 80.4195 -50.9834 -114.889 25.4595 -12.6361 4.26735 -3.12295 -13.6526 -37.3802 -7.41561 -0.726871 5.71881 -103.321 -43.7845 56.515 -28.185 12.1345 1.80095 2.17564 10.5066 -29.146 12.8999 1.22314 5.40507 9.96039 1.28472 3.45139 -5.06227 0.486263 -0.546259 
-47.9895 97.2684 42.1875 -104.596 -86.2231 -104.968 -171.893 2.13956 91.4457 -6.75149 6.31745 -0.191375 59.355 2.59637 8.24068 33.0983 5.24829 -17.1835 176.893 3.19077 88.2895 -11.1985 5.35323 -1.03341 64.1064 -1.40093 -0.744157 29.9169 -0.43674 9.54333 -0.116649 7.0197 -90.0042 12.8345 -0.233598 0.0196556 1.1636 -0.232499 0.0299131 -21.3717 -0.228711 -0.0514615 -1.35907 -0.228703 -0.0514583 80.4702 -51.011 -114.804 25.3083 -12.8356 4.21674 -2.91412 -13.8289 -37.3194 -7.47852 -0.73206 5.71797 -103.341 -43.7435 56.4654 -28.1666 12.1727 1.78321 2.18831 10.6114 -29.1015 12.9496 1.22805 5.40911 9.97935 1.26774 3.41622 -5.12025 0.477637 -0.56792 
-47.996 97.2705 42.1828 -104.731 -86.2598 -105.074 -171.88 2.30656 91.4847 -7.0885 6.35537 -0.194332 59.4889 2.54352 8.09507 33.0399 5.18719 -16.6092 176.91 3.13152 88.3335 -11.0576 5.4412 -1.02085 64.0102 -1.38498 -0.735133 29.9094 -0.436714 9.52985 -0.127425 7.01733 -90.0158 12.8392 -0.260594 -0.000378192 1.16833 -0.260359 0.0110858 -21.367 -0.248438 -0.0786796 -1.35437 -0.248432 -0.0786791 80.4867 -50.78 -114.869 25.473 -12.7984 4.27717 -2.85645 -13.4645 -37.3283 -7.76071 -0.758757 5.79362 -103.261 -43.78 56.6038 -28.2216 12.2078 1.74174 2.15158 10.5643 -29.1219 12.8693 1.21541 5.36705 9.86806 1.29227 3.61335 -4.94563 0.462677 -0.768374 
-48.017 97.2616 42.2053 -104.899 -86.1481 -105.215 -171.855 2.19379 91.5382 -6.9191 6.3653 -0.201615 59.1706 2.43246 8.50577 34.0285 6.01839 -17.7456 176.907 3.04466 88.3531 -11.0053 5.3109 -1.01468 64.3988 -1.54462 -0.831028 29.1491 -0.567027 9.8492 -0.103998 7.02753 -90.0194 12.8188 -0.215723 -0.012865 1.14791 -0.216088 -0.00336364 -21.3874 -0.201892 -0.0771081 -1.37473 -0.201887 -0.0771089 80.5984 -50.762 -114.712 25.4763 -12.8786 4.17966 -2.53881 -13.3415 -37.1736 -8.08458 -0.762777 5.42607 -103.439 -43.7254 56.3092 -28.1116 12.2794 1.78992 2.11847 10.5638 -29.1293 12.8864 1.20694 5.29359 10.0349 1.33193 3.68993 -5.18202 0.482089 -0.877392 
-48.0203 97.2615 42.1679 -106.251 -86.2602 -106.706 -171.925 1.99482 91.41 -6.65144 6.54753 -0.19232 59.2332 2.58127 8.30915 33.2243 5.34625 -16.8875 176.85 3.35743 88.2224 -11.6858 5.47558 -1.02768 64.1206 -1.29733 -0.679341 29.9245 -0.437338 9.59314 -0.132451 7.03129 -90.0045 12.8114 -0.265142 0.0226842 1.14044 -0.263888 0.0343258 -21.3949 -0.259704 -0.0580528 -1.38228 -0.259705 -0.0580564 80.5043 -50.7267 -114.864 25.4929 -12.7289 4.20615 -2.52444 -13.555 -37.1709 -7.98796 -0.760262 5.50833 -103.322 -43.7805 56.5112 -28.1141 12.344 1.70096 1.99635 10.5577 -28.9032 13.2631 1.23604 5.26948 9.90181 1.31959 3.6081 -4.99786 0.490076 -0.782655 
-48.0003 97.2661 42.1537 -105.081 -86.451 -105.426 -171.936 2.28527 91.4772 -6.92047 6.67941 -0.167189 59.39 2.66881 8.26214 32.9191 5.09313 -16.881 176.855 3.56097 88.3056 -11.8167 5.84906 -0.927119 63.9747 -1.21594 -0.629891 30.137 -0.415519 9.77219 -0.148042 7.01843 -90.0092 12.8376 -0.2983 0.0174206 1.16674 -0.297244 0.0305195 -21.3687 -0.289744 -0.073037 -1.35604 -0.289748 -0.0730462 80.4041 -50.8967 -114.945 25.4515 -12.7675 4.25507 -2.63246 -13.6453 -37.2464 -8.08654 -0.776186 5.63629 -103.141 -43.6156 56.7091 -28.1959 12.4481 1.65519 1.89612 10.4387 -28.8883 13.1818 1.22699 5.25459 9.93281 1.28205 3.31321 -5.13378 0.515562 -0.515766 
-48.0051 97.2508 42.165 -104.849 -86.4227 -105.154 -171.963 2.37254 91.5038 -7.13345 6.79868 -0.127348 59.5552 2.6533 8.10252 32.7054 4.89099 -15.9381 176.906 3.1059 88.3705 -10.9838 5.47366 -0.976325 64.1722 -1.47094 -0.787975 29.5502 -0.485505 9.46198 -0.146 7.01564 -90.0165 12.8341 -0.297761 0.00271884 1.16322 -0.297354 0.0158139 -21.3722 -0.284817 -0.0869048 -1.35955 -0.284811 -0.0869 80.4155 -50.9886 -114.893 25.2804 -12.8778 4.20223 -2.71629 -13.6506 -37.249 -8.07614 -0.777717 5.67152 -103.227 -43.6589 56.5982 -28.1178 12.4144 1.69207 1.90563 10.3555 -28.9658 13.1102 1.22455 5.28176 9.96313 1.27851 3.62414 -5.1875 0.447355 -0.895094 
